<svg width="24" height="24" viewBox="0 0 24 24" fill="none" xmlns="http://www.w3.org/2000/svg">
<path d="M19.4565 10.797C19.3765 10.616 19.1976 10.5 18.9996 10.5H14.4996V2.99999C14.4996 2.79299 14.3726 2.60699 14.1786 2.53299C13.9836 2.45799 13.7666 2.51198 13.6276 2.66498L4.62756 12.665C4.49556 12.812 4.4616 13.022 4.5426 13.203C4.6226 13.384 4.80157 13.5 4.99957 13.5H9.49957V21C9.49957 21.207 9.62655 21.393 9.82055 21.467C9.87955 21.489 9.93957 21.5 9.99957 21.5C10.1386 21.5 10.2746 21.442 10.3716 21.334L19.3716 11.334C19.5036 11.188 19.5365 10.977 19.4565 10.797Z" fill="#25314C"/>
</svg>
