<svg width="24" height="24" viewBox="0 0 24 24" fill="none" xmlns="http://www.w3.org/2000/svg">
<path d="M19.9697 20.96L18.0298 20.31C17.6598 20.19 17.2697 20.19 16.9197 20.35C16.0397 20.76 15.0398 21 13.9998 21C12.0798 21 10.3327 20.222 9.07471 18.969C8.88471 18.78 9.04672 18.451 9.30372 18.472C14.4697 18.941 18.9447 14.466 18.4697 9.29999C18.4217 9.01399 18.7708 8.84598 19.0498 9.16998C20.9828 11.061 21.5819 14.444 20.3499 16.92C19.9279 17.66 20.7897 19.242 20.9597 19.97C21.1597 20.58 20.5797 21.16 19.9697 20.96ZM16.9998 9.99902C16.9998 6.13402 13.8657 3 10.0007 3C6.13574 3 3.00171 6.13402 3.00171 9.99902C3.00171 11.041 3.23473 12.036 3.64673 12.923C3.81073 13.265 3.81085 13.662 3.69385 14.027L3.04078 15.971C2.83878 16.578 3.42181 17.161 4.02881 16.959L5.97266 16.306C6.33866 16.189 6.73467 16.189 7.07667 16.353C7.96267 16.765 8.95874 16.998 10.0007 16.998C13.8657 16.998 16.9998 13.864 16.9998 9.99902Z" fill="#25314C"/>
</svg>
