<svg width="24" height="24" viewBox="0 0 24 24" fill="none" xmlns="http://www.w3.org/2000/svg">
<path d="M19.9697 20.96L18.0297 20.31C17.6597 20.19 17.2696 20.19 16.9196 20.35C16.0396 20.76 15.0397 21 13.9997 21C12.0797 21 10.3337 20.223 9.07466 18.969C8.88466 18.78 9.04667 18.451 9.30367 18.472C14.4697 18.941 18.9447 14.466 18.4697 9.29999C18.4217 9.01399 18.7708 8.84598 19.0498 9.16998C20.9828 11.061 21.5828 14.444 20.3498 16.92C19.9288 17.66 20.7897 19.242 20.9597 19.97C21.1597 20.58 20.5797 21.16 19.9697 20.96ZM10.0007 16.998C8.95869 16.998 7.96262 16.765 7.07662 16.352C6.73462 16.189 6.33761 16.189 5.97261 16.305L4.02877 16.958C3.42277 17.16 2.83873 16.577 3.04073 15.97L3.6938 14.026C3.8108 13.661 3.81069 13.264 3.64669 12.922C3.23469 12.035 3.00069 11.04 3.00069 9.99799C3.00069 6.13299 6.13471 2.99902 9.99971 2.99902C13.8647 2.99902 16.9987 6.13299 16.9987 9.99799C16.9987 13.863 13.8657 16.998 10.0007 16.998ZM6.24971 8.5C6.24971 8.914 6.58571 9.25 6.99971 9.25H12.9997C13.4137 9.25 13.7497 8.914 13.7497 8.5C13.7497 8.086 13.4137 7.75 12.9997 7.75H6.99971C6.58571 7.75 6.24971 8.086 6.24971 8.5ZM9.99971 12.25C10.4137 12.25 10.7497 11.914 10.7497 11.5C10.7497 11.086 10.4137 10.75 9.99971 10.75H6.99971C6.58571 10.75 6.24971 11.086 6.24971 11.5C6.24971 11.914 6.58571 12.25 6.99971 12.25H9.99971Z" fill="#25314C"/>
</svg>
