<svg width="25" height="25" viewBox="0 0 25 25" fill="none" xmlns="http://www.w3.org/2000/svg">
<g clip-path="url(#clip0_5240_258)">
<path d="M13.0188 18.7812C9.60136 18.7812 6.98388 16.0401 6.98388 12.5298C6.98388 9.01961 9.57029 6.33981 13.0188 6.33981C15.4142 6.33981 17.5548 7.54131 18.608 9.72734L24.4208 7.78819C22.6002 3.35328 18.3206 0.550781 13.0825 0.550781C5.89806 0.550781 0.5 5.6635 0.5 12.4685C0.5 19.2735 5.92913 24.5403 12.9878 24.5403C18.3206 24.5403 22.7276 21.6136 24.4845 17.0261L18.5769 15.0555C17.6821 17.3642 15.4779 18.7812 13.0188 18.7812Z" fill="white"/>
</g>
<defs>
<clipPath id="clip0_5240_258">
<rect width="24" height="24" fill="white" transform="translate(0.5 0.541748)"/>
</clipPath>
</defs>
</svg>
