<svg width="24" height="24" viewBox="0 0 24 24" fill="none" xmlns="http://www.w3.org/2000/svg">
<path fillRule="evenodd" clipRule="evenodd" d="M20.2704 9.06229L13.5884 3.56925C12.6654 2.81025 11.3344 2.81025 10.4114 3.56925L3.73039 9.06229C3.16939 9.52329 2.90239 10.2512 3.03239 10.9652L4.48747 18.9473C4.70447 20.1353 5.73946 20.9993 6.94646 20.9993H17.0524C18.2604 20.9993 19.2954 20.1353 19.5114 18.9473L20.9664 10.9643C21.0984 10.2523 20.8314 9.52329 20.2704 9.06229ZM15.9255 13.2942C15.4035 15.9632 12.0004 17.5003 12.0004 17.5003C12.0004 17.5003 8.59736 15.9632 8.07536 13.2942C7.75536 11.6562 8.45447 10.0093 10.2325 10.0003C11.5565 9.99428 12.0004 11.3183 12.0004 11.3183C12.0004 11.3183 12.4444 9.99328 13.7684 10.0003C15.5494 10.0093 16.2455 11.6562 15.9255 13.2942Z" fill="#25314C"/>
</svg>
