<svg width="24" height="24" viewBox="0 0 24 24" fill="none" xmlns="http://www.w3.org/2000/svg">
<path d="M17.0532 21.75H6.94817C5.37717 21.75 4.03217 20.628 3.75017 19.083L2.29522 11.0999C2.11722 10.1189 2.4842 9.11599 3.2542 8.483L9.93621 2.98995C11.1332 2.00595 12.8702 2.00595 14.0672 2.98995L20.7492 8.483C21.5192 9.11599 21.8862 10.1189 21.7082 11.0999L20.2532 19.083C19.9692 20.628 18.6242 21.75 17.0532 21.75ZM12.0002 3.75094C11.6042 3.75094 11.2101 3.88291 10.8881 4.14791L4.20623 9.64095C3.85523 9.92895 3.68819 10.385 3.77019 10.831L5.22515 18.813C5.37615 19.645 6.1012 20.249 6.9472 20.249H17.0522C17.8982 20.249 18.6222 19.645 18.7742 18.813L20.2292 10.8299C20.3102 10.3839 20.1431 9.92895 19.7931 9.64095L13.1111 4.14791C12.7901 3.88391 12.3952 3.75094 12.0002 3.75094ZM19.5131 18.948H19.5231H19.5131ZM12.0002 18.25C11.8952 18.25 11.7892 18.2279 11.6912 18.1839C11.5382 18.1149 7.92719 16.452 7.33819 13.438C7.10019 12.219 7.33624 11.063 7.98724 10.269C8.52923 9.60701 9.30313 9.25494 10.2261 9.25094C11.0231 9.25794 11.5862 9.565 11.9982 9.967C12.4082 9.568 12.9872 9.25094 13.7562 9.25094C13.7602 9.25094 13.7652 9.25094 13.7702 9.25094C14.6942 9.25494 15.4682 9.60691 16.0102 10.2679C16.6602 11.0619 16.8982 12.217 16.6592 13.438C16.0702 16.452 12.4602 18.1149 12.3062 18.1839C12.2112 18.2279 12.1052 18.25 12.0002 18.25ZM10.2402 10.75C10.2382 10.75 10.2372 10.75 10.2352 10.75C9.76716 10.752 9.40112 10.91 9.14812 11.218C8.78712 11.659 8.66121 12.382 8.81121 13.149C9.16621 14.967 11.2112 16.232 11.9992 16.659C12.7872 16.233 14.8322 14.968 15.1872 13.149C15.3372 12.38 15.2112 11.658 14.8502 11.217C14.5971 10.909 14.2321 10.752 13.7621 10.749C13.0571 10.724 12.7372 11.479 12.7072 11.563C12.6002 11.861 12.3152 12.063 11.9992 12.063C11.9972 12.063 11.9941 12.063 11.9911 12.063C11.6721 12.06 11.3882 11.858 11.2872 11.555C11.2622 11.48 10.9782 10.75 10.2402 10.75ZM15.9252 13.2929H15.9352H15.9252Z" fill="#25314C"/>
</svg>
