<svg width="24" height="24" viewBox="0 0 24 24" fill="none" xmlns="http://www.w3.org/2000/svg">
<path d="M20.92 3.00869C20.4 2.68769 19.764 2.65854 19.217 2.93154L15.79 4.64468C15.643 4.71768 15.468 4.72758 15.311 4.66958L9.21304 2.38271C8.66804 2.17771 8.05602 2.2096 7.53702 2.4706L3.76904 4.35464C2.83104 4.82364 2.24902 5.7666 2.24902 6.8146V19.5026C2.24902 20.1136 2.55904 20.6696 3.07904 20.9906C3.59904 21.3116 4.23504 21.3408 4.78204 21.0678L8.20905 19.3546C8.35605 19.2816 8.53102 19.2717 8.68802 19.3297L14.786 21.6166C15.023 21.7056 15.273 21.7497 15.523 21.7497C15.545 21.7497 15.566 21.7426 15.588 21.7426C15.593 21.7426 15.596 21.7448 15.601 21.7448C15.618 21.7448 15.632 21.7368 15.648 21.7348C15.929 21.7178 16.207 21.6557 16.463 21.5277L20.231 19.6437C21.169 19.1747 21.751 18.2317 21.751 17.1837V4.49575C21.75 3.88575 21.44 3.32969 20.92 3.00869ZM4.11203 19.7257C4.00403 19.7787 3.91302 19.7427 3.86902 19.7147C3.82502 19.6877 3.75003 19.6236 3.75003 19.5026V6.8146C3.75003 6.3376 4.01504 5.90968 4.44104 5.69668L7.65002 4.09267V17.9726C7.61302 17.9886 7.57402 17.9946 7.53802 18.0136L4.11203 19.7257ZM9.21402 17.9247C9.19302 17.9167 9.17102 17.9146 9.15002 17.9066V3.96059L14.786 6.07363C14.807 6.08163 14.829 6.08372 14.85 6.09072V20.0377L9.21402 17.9247ZM20.25 17.1847C20.25 17.6617 19.985 18.0896 19.559 18.3026L16.35 19.9066V6.02871C16.387 6.01271 16.426 6.00472 16.462 5.98672L19.888 4.27358C19.995 4.21958 20.087 4.25657 20.131 4.28457C20.175 4.31257 20.25 4.37573 20.25 4.49673V17.1847Z" fill="#25314C"/>
</svg>
