<svg width="24" height="24" viewBox="0 0 24 24" fill="none" xmlns="http://www.w3.org/2000/svg">
<path d="M19.7498 11C19.7498 15.02 16.6728 18.3329 12.7498 18.7119V21C12.7498 21.414 12.4138 21.75 11.9998 21.75C11.5858 21.75 11.2498 21.414 11.2498 21V18.7019C10.8378 18.6619 10.4307 18.6011 10.0357 18.4951C9.63667 18.3881 9.39788 17.9759 9.50588 17.5769C9.61288 17.1779 10.0218 16.9409 10.4248 17.0459C10.9308 17.1819 11.4608 17.251 11.9998 17.251C15.4458 17.251 18.2498 14.447 18.2498 11.001C18.2498 10.587 18.5858 10.251 18.9998 10.251C19.4138 10.251 19.7498 10.586 19.7498 11ZM13.4138 15.5359C14.9028 15.0719 16.0697 13.9051 16.5357 12.4141C16.5577 12.3421 16.5698 12.2659 16.5698 12.1899V12.1799C16.5698 11.7659 16.2338 11.4351 15.8198 11.4351C15.4768 11.4351 15.1867 11.6689 15.0977 11.9839C14.7807 12.9789 14.0068 13.7599 13.0188 14.0869C12.6828 14.1609 12.4348 14.4611 12.4348 14.8201C12.4348 15.2341 12.7757 15.5701 13.1897 15.5701C13.2667 15.5701 13.3418 15.5589 13.4138 15.5359ZM21.5298 3.53003L3.52981 21.53C3.38381 21.676 3.19178 21.75 2.99978 21.75C2.80778 21.75 2.61575 21.677 2.46975 21.53C2.17675 21.237 2.17675 20.762 2.46975 20.469L6.49075 16.448C5.04575 14.988 4.24978 13.055 4.24978 10.999C4.24978 10.585 4.58578 10.249 4.99978 10.249C5.41378 10.249 5.74978 10.585 5.74978 10.999C5.74978 12.654 6.3908 14.21 7.5508 15.387L8.6199 14.3181C7.7549 13.4401 7.24978 12.254 7.24978 10.998V6.99805C7.24978 5.74005 7.74177 4.54809 8.63577 3.64209C9.55077 2.74109 10.7418 2.24805 11.9998 2.24805C14.3668 2.24805 16.3188 3.99396 16.6758 6.26196L20.4697 2.46802C20.7627 2.17502 21.2378 2.17502 21.5308 2.46802C21.8238 2.76102 21.8228 3.23703 21.5298 3.53003ZM9.68581 13.2529L15.2498 7.68896V7C15.2498 5.208 13.7918 3.75 11.9998 3.75C11.1388 3.75 10.3198 4.0891 9.69582 4.7041C9.08882 5.3201 8.74978 6.139 8.74978 7V11C8.74978 11.854 9.09981 12.6539 9.68581 13.2529Z" fill="#25314C"/>
</svg>
