<svg width="24" height="24" viewBox="0 0 24 24" fill="none" xmlns="http://www.w3.org/2000/svg">
<path d="M4.01965 13.5C3.19065 13.5 2.51465 12.829 2.51465 12C2.51465 11.171 3.18164 10.5 4.00964 10.5H4.01965C4.84865 10.5 5.51965 11.171 5.51965 12C5.51965 12.829 4.84865 13.5 4.01965 13.5ZM12.0197 13.5C11.1907 13.5 10.5146 12.829 10.5146 12C10.5146 11.171 11.1816 10.5 12.0096 10.5H12.0197C12.8487 10.5 13.5197 11.171 13.5197 12C13.5197 12.829 12.8487 13.5 12.0197 13.5ZM20.0197 13.5C19.1907 13.5 18.5146 12.829 18.5146 12C18.5146 11.171 19.1816 10.5 20.0096 10.5H20.0197C20.8487 10.5 21.5197 11.171 21.5197 12C21.5197 12.829 20.8487 13.5 20.0197 13.5Z" fill="#25314C"/>
</svg>
