<svg width="24" height="24" viewBox="0 0 24 24" fill="none" xmlns="http://www.w3.org/2000/svg">
<path d="M18.83 6.82006L13.33 3.38006C12.51 2.87006 11.49 2.87006 10.67 3.38006L5.17 6.82006C4.44 7.27006 4 8.08006 4 8.94006V15.0601C4 15.9201 4.44 16.73 5.17 17.18L10.67 20.62C11.49 21.13 12.51 21.13 13.33 20.62L18.83 17.18C19.56 16.73 20 15.9201 20 15.0601V8.94006C20 8.08006 19.56 7.27006 18.83 6.82006ZM12 15.0001C10.34 15.0001 9 13.6601 9 12.0001C9 10.3401 10.34 9.00005 12 9.00005C13.66 9.00005 15 10.3401 15 12.0001C15 13.6601 13.66 15.0001 12 15.0001Z" fill="#25314C"/>
</svg>
