<svg width="24" height="24" viewBox="0 0 24 24" fill="none" xmlns="http://www.w3.org/2000/svg">
<path d="M16.5518 21.7519C16.0928 21.7519 15.6309 21.6899 15.1749 21.5649C9.00986 19.8729 4.12885 14.9949 2.43585 8.83393C2.05085 7.43293 2.2618 5.97292 3.0318 4.72492C3.8048 3.47092 5.07586 2.58592 6.51886 2.29792C7.47886 2.10592 8.42785 2.53392 8.91485 3.35492L10.4778 5.99491C11.2368 7.27691 10.8597 8.92791 9.61871 9.75391L8.48785 10.5059C9.54485 12.6759 11.3227 14.4589 13.4837 15.5149L14.2459 14.3779C15.0769 13.1389 16.7278 12.7679 18.0088 13.5309L20.6519 15.1069C21.4699 15.5949 21.8928 16.5499 21.7068 17.4819C21.4188 18.9249 20.5338 20.1959 19.2808 20.9689C18.4388 21.4869 17.5018 21.7519 16.5518 21.7519ZM6.97784 3.74991C6.92884 3.74991 6.87887 3.75493 6.83087 3.76493C5.77687 3.97593 4.86387 4.6109 4.30987 5.5119C3.76087 6.4019 3.60985 7.44092 3.88385 8.43592C5.43685 14.0889 9.91584 18.5659 15.5718 20.1179C16.5678 20.3909 17.6037 20.2389 18.4927 19.6909C19.3927 19.1359 20.0289 18.2219 20.2359 17.1859C20.2979 16.8749 20.1569 16.5559 19.8829 16.3929L17.2408 14.8169C16.6458 14.4629 15.8778 14.6359 15.4918 15.2109L14.3768 16.8759C14.1768 17.1739 13.7909 17.2879 13.4649 17.1499C10.5019 15.9109 8.09089 13.4949 6.85089 10.5209C6.71289 10.1889 6.82875 9.80691 7.12775 9.60791L8.78888 8.5029C9.36488 8.1199 9.53983 7.35291 9.18683 6.75791L7.62384 4.1189C7.48684 3.8869 7.23884 3.74991 6.97784 3.74991Z" fill="#25314C"/>
</svg>
