<svg width="24" height="24" viewBox="0 0 24 24" fill="none" xmlns="http://www.w3.org/2000/svg">
<path d="M17.6252 14.174L20.2682 15.75C20.8142 16.076 21.0961 16.71 20.9711 17.334C20.4601 19.893 17.8902 21.533 15.3732 20.842C9.4342 19.212 4.79509 14.587 3.15909 8.635C2.46709 6.117 4.10519 3.54498 6.66519 3.03298L6.68204 3.02999C7.30704 2.90499 7.94419 3.18799 8.26919 3.73699L9.83218 6.376C10.3882 7.315 10.112 8.52398 9.20303 9.12798L7.54214 10.233C8.71414 13.04 10.9541 15.289 13.7531 16.459L14.8681 14.794C15.4771 13.887 16.6872 13.615 17.6252 14.174Z" fill="#25314C"/>
</svg>
