<svg width="24" height="24" viewBox="0 0 24 24" fill="none" xmlns="http://www.w3.org/2000/svg">
<path d="M20.6512 15.1061L18.0084 13.5301C16.7284 12.7671 15.0745 13.1381 14.2455 14.3771L13.4833 15.5141C11.3223 14.4581 9.54441 12.6761 8.48741 10.5051L9.61827 9.75312C10.8593 8.92812 11.2364 7.27711 10.4774 5.99411L8.91441 3.35514C8.42741 2.53314 7.47041 2.10713 6.51841 2.29813C5.07541 2.58713 3.80435 3.47213 3.03135 4.72513C2.26135 5.97313 2.05141 7.43314 2.43541 8.83414C4.12841 14.9951 9.01042 19.8731 15.1744 21.5651C15.6304 21.6901 16.0924 21.7521 16.5514 21.7521C17.5014 21.7521 18.4394 21.4871 19.2804 20.9681C20.5334 20.1951 21.4184 18.9241 21.7064 17.4811C21.8944 16.5481 21.4702 15.5941 20.6512 15.1061ZM20.2355 17.1861C20.0285 18.2221 19.3923 19.1351 18.4923 19.6911C17.6043 20.2391 16.5664 20.3911 15.5714 20.1181C9.91539 18.5661 5.4354 14.0891 3.8834 8.43613C3.6094 7.44013 3.76043 6.40212 4.30943 5.51212C4.86543 4.61112 5.77743 3.97614 6.83043 3.76514C6.87943 3.75514 6.9294 3.75013 6.9774 3.75013C7.2394 3.75013 7.48739 3.88711 7.62339 4.11911L9.18638 6.75812C9.53938 7.35312 9.36443 8.12012 8.78843 8.50312L7.1273 9.60813C6.8283 9.80713 6.71245 10.1901 6.85045 10.5211C8.09145 13.4951 10.5015 15.9121 13.4645 17.1501C13.7905 17.2871 14.1763 17.1741 14.3763 16.8761L15.4913 15.2111C15.8763 14.6361 16.6413 14.4621 17.2403 14.8171L19.8834 16.3931C20.1564 16.5571 20.2985 16.8751 20.2355 17.1861ZM14.4703 9.53012C14.1773 9.23712 14.1773 8.76212 14.4703 8.46912L18.1903 4.74912H16.6683C16.2543 4.74912 15.9183 4.41312 15.9183 3.99912C15.9183 3.58512 16.2543 3.24912 16.6683 3.24912H20.0003C20.0983 3.24912 20.1955 3.26913 20.2875 3.30713C20.4705 3.38313 20.6175 3.52914 20.6935 3.71314C20.7315 3.80514 20.7513 3.90213 20.7513 4.00013V7.33313C20.7513 7.74713 20.4153 8.08313 20.0013 8.08313C19.5873 8.08313 19.2513 7.74713 19.2513 7.33313V5.81012L15.5314 9.53012C15.3854 9.67612 15.1933 9.75013 15.0013 9.75013C14.8093 9.75013 14.6163 9.67712 14.4703 9.53012Z" fill="#25314C"/>
</svg>
