<svg width="24" height="24" viewBox="0 0 24 24" fill="none" xmlns="http://www.w3.org/2000/svg">
<path d="M21.2999 15.38L21.2969 15.385C20.9719 15.879 20.3738 16.1 19.8018 15.957L17.0777 15.258C16.1047 15.008 15.4988 14.04 15.6978 13.056L15.9469 11.828C13.4119 10.892 10.6227 10.898 8.08674 11.822L8.32893 13.06C8.52093 14.043 7.91177 15.006 6.93977 15.251L4.1988 15.945C3.6268 16.088 3.03479 15.861 2.70979 15.379C1.36479 13.361 1.98793 10.263 4.09993 9.07198C5.34793 8.36798 6.66687 7.84298 8.01887 7.49798C11.9779 6.48698 16.2319 7.01398 19.8909 9.08498C21.9939 10.275 22.6399 13.37 21.2999 15.38Z" fill="#25314C"/>
</svg>
