<svg width="24" height="24" viewBox="0 0 24 24" fill="none" xmlns="http://www.w3.org/2000/svg">
<path d="M20.6512 15.105L18.0084 13.529C16.7284 12.767 15.0755 13.138 14.2455 14.376L13.4833 15.513C11.3223 14.457 9.54441 12.674 8.48741 10.504L9.61827 9.75199C10.8593 8.92699 11.2364 7.27598 10.4774 5.99298L8.91441 3.35297C8.42741 2.53197 7.47941 2.10396 6.51841 2.29596C5.07541 2.58496 3.80435 3.46996 3.03135 4.72296C2.26135 5.97096 2.05141 7.43097 2.43541 8.83197C4.12841 14.993 9.00942 19.871 15.1744 21.563C15.6304 21.688 16.0924 21.75 16.5514 21.75C17.5014 21.75 18.4394 21.485 19.2804 20.966C20.5334 20.193 21.4184 18.922 21.7064 17.479C21.8934 16.548 21.4702 15.594 20.6512 15.105ZM20.2355 17.186C20.0285 18.222 19.3923 19.135 18.4923 19.691C17.6043 20.239 16.5674 20.391 15.5714 20.118C9.91539 18.565 5.4354 14.089 3.8834 8.43598C3.6094 7.43998 3.76043 6.40197 4.30943 5.51197C4.86443 4.61097 5.77743 3.97599 6.83043 3.76499C6.87943 3.75499 6.9294 3.74997 6.9774 3.74997C7.2394 3.74997 7.48739 3.88696 7.62339 4.11896L9.18638 6.75797C9.53938 7.35297 9.36443 8.11996 8.78843 8.50296L7.1273 9.60797C6.8273 9.80697 6.71245 10.19 6.85045 10.521C8.09045 13.495 10.5015 15.911 13.4645 17.15C13.7905 17.287 14.1763 17.174 14.3763 16.876L15.4913 15.211C15.8773 14.636 16.6453 14.463 17.2403 14.817L19.8824 16.393C20.1564 16.556 20.2985 16.875 20.2355 17.186ZM14.3085 9.28696C14.2705 9.19496 14.2503 9.09797 14.2503 8.99997V5.66696C14.2503 5.25296 14.5863 4.91696 15.0003 4.91696C15.4143 4.91696 15.7503 5.25296 15.7503 5.66696V7.18997L19.4703 3.46997C19.7633 3.17697 20.2384 3.17697 20.5314 3.46997C20.8244 3.76297 20.8244 4.23798 20.5314 4.53098L16.8114 8.25098H18.3334C18.7474 8.25098 19.0834 8.58698 19.0834 9.00098C19.0834 9.41498 18.7474 9.75098 18.3334 9.75098H15.0003C14.9023 9.75098 14.8052 9.73097 14.7132 9.69297C14.5302 9.61596 14.3845 9.46996 14.3085 9.28696Z" fill="#25314C"/>
</svg>
