<svg width="24" height="24" viewBox="0 0 24 24" fill="none" xmlns="http://www.w3.org/2000/svg">
<path d="M20.4026 9.629L8.99564 2.80701C7.46664 1.89001 5.59962 2.132 4.35062 3.401C3.10862 4.664 2.90148 6.52401 3.83548 8.02801L6.30252 12L3.83548 15.972C2.90048 17.476 3.10762 19.336 4.35062 20.599C5.09362 21.354 6.05446 21.745 7.03446 21.745C7.70046 21.745 8.37664 21.564 8.99564 21.193L20.4026 14.371C21.2466 13.867 21.7495 12.98 21.7495 12C21.7495 11.02 21.2466 10.133 20.4026 9.629ZM19.6336 13.084L8.2266 19.906C7.0876 20.586 6.00244 20.139 5.42044 19.547C4.84444 18.961 4.41665 17.88 5.10965 16.763L7.60257 12.749H12.9995C13.4135 12.749 13.7495 12.413 13.7495 11.999C13.7495 11.585 13.4135 11.249 12.9995 11.249H7.60257L5.10965 7.23498C4.41665 6.11798 4.84344 5.03699 5.42044 4.45099C5.79444 4.07099 6.37544 3.75 7.04544 3.75C7.41844 3.75 7.8186 3.84899 8.2266 4.09299L19.6336 10.915C20.0196 11.146 20.2495 11.551 20.2495 11.999C20.2495 12.447 20.0196 12.853 19.6336 13.084Z" fill="#25314C"/>
</svg>
