<svg width="24" height="24" viewBox="0 0 24 24" fill="none" xmlns="http://www.w3.org/2000/svg">
<path d="M22.75 7.55984V16.4397C22.75 17.0217 22.424 17.5407 21.8979 17.7927C21.688 17.8947 21.4639 17.9439 21.2429 17.9439C20.9119 17.9439 20.585 17.8327 20.312 17.6157L17.75 15.5618V15.9998C17.75 18.4178 16.418 19.7498 14 19.7498H9C8.586 19.7498 8.25 19.4138 8.25 18.9998C8.25 18.5858 8.586 18.2498 9 18.2498H14C15.577 18.2498 16.25 17.5768 16.25 15.9998V10.9998C16.25 10.5858 16.586 10.2498 17 10.2498C17.414 10.2498 17.75 10.5858 17.75 10.9998V13.6397L21.249 16.4439L21.25 7.55984C20.856 7.59584 20.4751 7.27975 20.4441 6.86575C20.4141 6.45275 20.721 6.09279 21.134 6.06179C21.563 6.03279 21.9679 6.17769 22.2749 6.46169C22.5809 6.74669 22.75 7.13684 22.75 7.55984ZM21.53 3.52981L3.53003 21.5298C3.38403 21.6758 3.192 21.7498 3 21.7498C2.808 21.7498 2.61597 21.6768 2.46997 21.5298C2.17697 21.2368 2.17697 20.7618 2.46997 20.4688L3.42798 19.5108C2.01298 19.0298 1.25098 17.8258 1.25098 15.9988V7.9988C1.25098 5.5808 2.58298 4.2488 5.00098 4.2488H14.001C15.489 4.2488 16.581 4.77476 17.189 5.75076L20.4709 2.46877C20.7639 2.17577 21.239 2.17577 21.532 2.46877C21.825 2.76177 21.823 3.23681 21.53 3.52981ZM4.70703 18.2327L16.072 6.8677C15.867 6.2907 15.38 5.74978 14 5.74978H5C3.423 5.74978 2.75 6.42278 2.75 7.99978V15.9998C2.75 17.4718 3.34603 18.1477 4.70703 18.2327Z" fill="#25314C"/>
</svg>
